# File created by Blade
# Date/Time:  Fri Jan 16 19:14:28 2015
# Frame Rate: 120.000 fps
#------------------------------------------------------
:FULLY-SPECIFIED
:DEGREES
194
root 19.460030 35.742237 -22.410969 -169.128415 -1.648519 -178.397548
Spine -24.842233 0.704245 -0.491719
Head 18.960035 -2.343669 -3.035115
LeftShoulder -11.316149 -63.115823 53.030079
LeftArm 53.706326 -29.208933 -7.898264
LeftForeArm -10.188937 -0.000000 26.471200
LeftHand 2.976924 -0.000000 -16.155439
LeftHandThumb1 -26.253704 0.000000 33.147579
RightShoulder -7.001421 21.578033 -44.973691
RightArm 55.367888 53.569936 -0.070997
RightForeArm -56.308803 -0.000000 37.198322
RightHand -8.992715 -0.000000 3.971192
RightHandThumb1 -24.326973 -0.000000 -32.862282
LeftUpLeg -1.289740 7.528167 1.530253
LeftLeg -6.841887 -0.000000 0.000000
LeftFoot -20.427925 27.894490 -16.694751
LeftToeBase 23.830463 -0.000000 -0.000000
RightUpLeg -2.590528 -8.566096 1.907478
RightLeg -3.764606 -0.000000 0.000000
RightFoot -20.393882 -23.376287 19.897922
RightToeBase 22.430393 -0.000000 -0.000000
195
root 19.461791 35.743071 -22.416380 -169.118228 -1.660729 -178.374035
Spine -24.898417 0.756029 -0.504149
Head 18.907865 -2.412061 -3.094919
LeftShoulder -11.392210 -63.228261 53.174728
LeftArm 53.344199 -28.975140 -7.633365
LeftForeArm -11.468565 -0.000000 26.116995
LeftHand 3.076439 0.000000 -17.329757
LeftHandThumb1 -26.253704 0.000000 33.147579
RightShoulder -7.032895 21.656708 -45.012224
RightArm 55.092479 53.476655 -0.117248
RightForeArm -57.804132 0.000000 37.490042
RightHand -9.455605 -0.000000 5.028061
RightHandThumb1 -24.326973 -0.000000 -32.862282
LeftUpLeg -1.293312 7.506860 1.558367
LeftLeg -6.839320 -0.000000 0.000000
LeftFoot -20.432914 27.903420 -16.690281
LeftToeBase 23.822166 -0.000000 -0.000000
RightUpLeg -2.601785 -8.564596 1.935319
RightLeg -3.744952 -0.000000 0.000000
RightFoot -20.395867 -23.360213 19.946051
RightToeBase 22.381154 -0.000000 -0.000000
196
root 19.460276 35.743920 -22.422593 -169.114668 -1.668018 -178.366351
Spine -24.953658 0.805401 -0.520295
Head 18.899166 -2.515744 -3.198464
LeftShoulder -11.444431 -63.283285 53.251882
LeftArm 53.057905 -28.774939 -7.401448
LeftForeArm -12.415179 0.000000 25.730904
LeftHand 3.279401 0.000000 -18.557311
LeftHandThumb1 -26.253704 0.000000 33.147579
RightShoulder -7.059346 21.745776 -45.070374
RightArm 54.712843 53.264149 -0.357379
RightForeArm -58.981306 -0.000000 37.568275
RightHand -9.987162 -0.000000 5.524126
RightHandThumb1 -24.326973 -0.000000 -32.862282
LeftUpLeg -1.278232 7.469110 1.561074
LeftLeg -6.871061 -0.000000 0.000000
LeftFoot -20.467096 27.977317 -16.756063
LeftToeBase 23.848477 -0.000000 -0.000000
RightUpLeg -2.609204 -8.578901 1.944437
RightLeg -3.720399 -0.000000 0.000000
RightFoot -20.422534 -23.354780 19.989829
RightToeBase 22.403940 -0.000000 -0.000000
197
root 19.460394 35.744299 -22.428823 -169.102221 -1.675380 -178.352598
Spine -25.021825 0.838586 -0.542094
Head 18.848986 -2.612176 -3.226773
LeftShoulder -11.522439 -63.361426 53.398465
LeftArm 52.692805 -28.497012 -7.127609
LeftForeArm -12.968984 0.000000 25.467384
LeftHand 3.397907 0.000000 -19.653025
LeftHandThumb1 -26.253704 0.000000 33.147579
RightShoulder -7.087587 21.792221 -45.058715
RightArm 54.423831 53.099008 -0.523903
RightForeArm -59.828973 -0.000000 37.507499
RightHand -10.406243 -0.000000 5.574800
RightHandThumb1 -24.326973 -0.000000 -32.862282
LeftUpLeg -1.274968 7.431869 1.585276
LeftLeg -6.869063 -0.000000 0.000000
LeftFoot -20.456162 27.962998 -16.729460
LeftToeBase 23.803519 -0.000000 -0.000000
RightUpLeg -2.627513 -8.576402 1.964813
RightLeg -3.693672 -0.000000 0.000000
RightFoot -20.451645 -23.368168 20.041912
RightToeBase 22.341997 -0.000000 -0.000000
198
root 19.460391 35.744962 -22.434542 -169.093003 -1.673051 -178.347836
Spine -25.084475 0.880105 -0.565322
Head 18.824020 -2.666111 -3.280900
LeftShoulder -11.612299 -63.443883 53.519164
LeftArm 52.382141 -28.182396 -6.844137
LeftForeArm -13.045898 -0.000000 25.217527
LeftHand 3.380625 -0.000000 -20.602549
LeftHandThumb1 -26.253704 0.000000 33.147579
RightShoulder -7.116470 21.882274 -45.106697
RightArm 54.049633 52.856371 -0.764431
RightForeArm -61.027874 -0.000000 37.589732
RightHand -11.155690 -0.000000 6.214473
RightHandThumb1 -24.326973 -0.000000 -32.862282
LeftUpLeg -1.285007 7.452540 1.587288
LeftLeg -6.851099 -0.000000 0.000000
LeftFoot -20.471642 27.940888 -16.746177
LeftToeBase 23.830737 -0.000000 -0.000000
RightUpLeg -2.633575 -8.562524 1.968904
RightLeg -3.680725 -0.000000 0.000000
RightFoot -20.448493 -23.383286 20.043577
RightToeBase 22.345841 -0.000000 -0.000000
199
root 19.460682 35.745475 -22.442891 -169.093865 -1.683553 -178.336672
Spine -25.146359 0.911643 -0.579629
Head 18.805770 -2.667275 -3.303576
LeftShoulder -11.712279 -63.540449 53.668750
LeftArm 52.007378 -27.778953 -6.481366
LeftForeArm -12.848493 -0.000000 25.036566
LeftHand 3.304854 -0.000000 -21.416468
LeftHandThumb1 -26.253704 0.000000 33.147579
RightShoulder -7.125729 21.945726 -45.109201
RightArm 53.706156 52.666449 -1.058539
RightForeArm -61.836032 -0.000000 37.409282
RightHand -11.390332 -0.000000 6.390971
RightHandThumb1 -24.326973 -0.000000 -32.862282
LeftUpLeg -1.287816 7.488805 1.597447
LeftLeg -6.824529 -0.000000 0.000000
LeftFoot -20.481351 27.907203 -16.731753
LeftToeBase 23.818027 -0.000000 -0.000000
RightUpLeg -2.618008 -8.574687 1.979873
RightLeg -3.678977 -0.000000 0.000000
RightFoot -20.435120 -23.369733 20.036212
RightToeBase 22.334474 -0.000000 -0.000000
